<svg width="72" height="12" viewBox="0 0 72 12" fill="none" xmlns="http://www.w3.org/2000/svg">
<g clip-path="url(#clip0_379_1313)">
<path d="M0.9375 0.612826H2.26339L5.11001 8.6776L8.48993 0.0646973L11.6921 8.6776L14.8457 0.612826H16.172L11.6436 11.9354L8.47363 3.3225L5.0774 11.9354L0.9375 0.612826ZM23.2878 0.612826V1.74199H18.889V4.93554H23.1585V6.0647H18.889V10.2419H23.2878V11.371H17.692V0.612826H23.2878ZM25.4874 0.612826H27.4281C28.5063 0.612826 29.3307 0.838891 29.9025 1.29025C30.5491 1.78496 30.8728 2.52702 30.8728 3.51605C30.8728 4.44083 30.5169 5.14534 29.8054 5.62921C30.4952 5.80108 31.0102 6.14792 31.3498 6.66934C31.6895 7.19076 31.8591 7.74741 31.8591 8.33889C31.8591 8.82276 31.7543 9.2687 31.5439 9.67747C31.3335 10.0859 31.0723 10.4141 30.7595 10.6615C30.1555 11.1345 29.2931 11.371 28.1717 11.371H25.4874V0.612826ZM26.684 1.74199V5.33889H27.5895C27.7514 5.33889 27.9078 5.33076 28.0588 5.3145C28.2098 5.29825 28.3903 5.25528 28.6006 5.1856C28.8106 5.11554 28.9938 5.02147 29.1502 4.90341C29.3067 4.78496 29.4386 4.60767 29.5465 4.37115C29.6544 4.13425 29.7084 3.86018 29.7084 3.54857C29.7084 3.21528 29.6436 2.92728 29.5143 2.68534C29.3847 2.44341 29.2391 2.26341 29.0777 2.14534C28.9158 2.02689 28.7217 1.93554 28.4955 1.87089C28.2688 1.80663 28.0964 1.7687 27.9777 1.75825C27.8593 1.74741 27.7405 1.74199 27.6221 1.74199H26.684ZM26.684 6.40341V10.2419H28.0588C28.9321 10.2419 29.5628 10.0913 29.951 9.7905C30.4253 9.44638 30.6624 8.95167 30.6624 8.30638C30.6624 7.58599 30.355 7.05915 29.7406 6.72586C29.3525 6.51063 28.7435 6.40341 27.9132 6.40341H26.684ZM39.8323 2.11283L38.8782 2.74186C38.7055 2.40857 38.4955 2.13992 38.2475 1.93554C37.9238 1.68818 37.5197 1.5647 37.0345 1.5647C36.4954 1.5647 36.0588 1.7176 35.7246 2.02418C35.3904 2.33076 35.2231 2.73141 35.2231 3.22573C35.2231 3.59154 35.3578 3.90315 35.6275 4.16134C35.8429 4.37657 36.2206 4.60225 36.7593 4.83876L37.7945 5.2905C38.5599 5.62379 39.1154 5.9625 39.4604 6.30663C39.9778 6.82263 40.2367 7.47296 40.2367 8.25799C40.2367 9.23657 39.913 10.0324 39.2663 10.6452C38.6193 11.258 37.8054 11.5646 36.8242 11.5646C35.8538 11.5646 35.0721 11.2742 34.479 10.6936C33.9939 10.2206 33.6597 9.58612 33.4765 8.79025L34.6409 8.4678C34.7162 9.00547 34.932 9.46225 35.2879 9.83889C35.6865 10.2364 36.2043 10.4354 36.8405 10.4354C37.5306 10.4354 38.0639 10.2287 38.4415 9.8145C38.8188 9.4007 39.0075 8.89786 39.0075 8.30638C39.0075 7.79038 38.8297 7.37115 38.4738 7.04831C38.2688 6.85476 37.8376 6.60741 37.1801 6.30663L36.2097 5.85489C35.5518 5.55373 35.0721 5.25799 34.7701 4.96767C34.2745 4.49463 34.0265 3.90857 34.0265 3.20986C34.0265 2.38186 34.3094 1.71257 34.8753 1.2016C35.4412 0.69102 36.1667 0.435536 37.0505 0.435536C37.7192 0.435536 38.296 0.596955 38.7812 0.919407C39.2233 1.20973 39.5734 1.60767 39.8323 2.11283ZM43.6329 0.612826V4.98392H49.1639V0.612826H50.3606V11.371H49.1639V6.11308H43.6329V11.371H42.4359V0.612826H43.6329ZM62.1585 9.9678C61.0748 11.0323 59.7462 11.5646 58.1719 11.5646C56.598 11.5646 55.269 11.0323 54.1853 9.9678C53.102 8.90328 52.5601 7.58057 52.5601 6.00005C52.5601 4.4087 53.1047 3.08328 54.1934 2.02418C55.2826 0.965085 56.6084 0.435536 58.1719 0.435536C59.7353 0.435536 61.0616 0.965085 62.1503 2.02418C63.2394 3.08328 63.7836 4.4087 63.7836 6.00005C63.7836 7.58057 63.2421 8.90328 62.1585 9.9678ZM61.277 2.85489C60.4254 1.99476 59.3902 1.5647 58.1719 1.5647C56.9535 1.5647 55.9187 1.99476 55.0668 2.85489C54.2152 3.71502 53.789 4.76367 53.789 6.00005C53.789 7.23644 54.2152 8.28509 55.0668 9.14521C55.9187 10.0053 56.9535 10.4354 58.1719 10.4354C59.3902 10.4354 60.4254 10.0053 61.277 9.14521C62.129 8.28509 62.5548 7.23644 62.5548 6.00005C62.5548 4.76367 62.129 3.71502 61.277 2.85489ZM65.9832 0.612826H67.9402C69.1691 0.612826 70.075 0.865601 70.6572 1.37115C71.3147 1.93012 71.6434 2.69889 71.6434 3.67747C71.6434 4.51631 71.3605 5.22857 70.7946 5.81463C70.2287 6.4007 69.374 6.69373 68.2313 6.69373H67.1798V11.371H65.9832V0.612826ZM67.1798 1.74199V5.56457H68.1665C68.8779 5.56457 69.4361 5.3927 69.8405 5.04857C70.2446 4.70444 70.4468 4.22599 70.4468 3.61283C70.4468 2.3656 69.6546 1.74199 68.0695 1.74199H67.1798Z" fill="white" fill-opacity="0.219608"/>
<path d="M0.00390625 0.627231H1.33018L4.17641 8.69201L7.55634 0.0791016L10.7585 8.69201L13.9121 0.627231H15.2384L10.71 11.9498L7.54042 3.33691L4.1442 11.9498L0.00390625 0.627231ZM22.3542 0.627231V1.75639H17.9554V4.94994H22.2249V6.0791H17.9554V10.2563H22.3542V11.3854H16.7588V0.627231H22.3542ZM24.5538 0.627231H26.4945C27.5727 0.627231 28.3975 0.853295 28.9689 1.30465C29.6159 1.79936 29.9392 2.54142 29.9392 3.53046C29.9392 4.45523 29.5833 5.15975 28.8718 5.64362C29.5619 5.81549 30.0766 6.16233 30.4162 6.68375C30.7559 7.20517 30.9259 7.76181 30.9259 8.3533C30.9259 8.83717 30.8207 9.2831 30.6103 9.69188C30.3999 10.1006 30.1387 10.4285 29.8259 10.6759C29.2223 11.1489 28.3599 11.3854 27.2385 11.3854H24.5538V0.627231ZM25.7504 1.75639V5.3533H26.6563C26.8178 5.3533 26.9742 5.34517 27.1252 5.32891C27.2762 5.31304 27.4567 5.26968 27.667 5.20001C27.8774 5.12994 28.0606 5.03588 28.2167 4.91781C28.3731 4.79936 28.5054 4.62207 28.6129 4.38555C28.7208 4.14904 28.7748 3.87459 28.7748 3.56297C28.7748 3.22968 28.71 2.94207 28.5807 2.70013C28.4515 2.45781 28.3059 2.27781 28.1441 2.15975C27.9822 2.0413 27.7881 1.94994 27.5619 1.8853C27.3356 1.82104 27.1629 1.7831 27.0445 1.77265C26.9257 1.76181 26.8073 1.75639 26.6885 1.75639H25.7504ZM25.7504 6.41781V10.2563H27.1252C27.9985 10.2563 28.6292 10.1061 29.0174 9.80491C29.4917 9.46078 29.7288 8.96607 29.7288 8.32078C29.7288 7.60039 29.4218 7.07355 28.807 6.74026C28.4189 6.52504 27.8099 6.41781 26.9797 6.41781H25.7504ZM38.8987 2.12723L37.9446 2.75626C37.7723 2.42297 37.5619 2.15433 37.3139 1.94994C36.9906 1.70259 36.5861 1.5791 36.1009 1.5791C35.5618 1.5791 35.1252 1.732 34.791 2.03859C34.4568 2.34517 34.2895 2.74581 34.2895 3.24013C34.2895 3.60594 34.4246 3.91755 34.6939 4.17575C34.9097 4.39097 35.287 4.61665 35.8261 4.85317L36.8609 5.30491C37.6267 5.6382 38.1818 5.97691 38.5268 6.32104C39.0442 6.83704 39.3031 7.48775 39.3031 8.27239C39.3031 9.25097 38.9798 10.0468 38.3328 10.6596C37.6857 11.2724 36.8718 11.579 35.8906 11.579C34.9202 11.579 34.1385 11.2886 33.5458 10.708C33.0606 10.235 32.7265 9.60052 32.5429 8.80465L33.7073 8.4822C33.783 9.01988 33.9984 9.47704 34.3543 9.8533C34.7533 10.2512 35.2707 10.4498 35.9069 10.4498C36.597 10.4498 37.1307 10.2431 37.508 9.82891C37.8852 9.4151 38.0739 8.91226 38.0739 8.32078C38.0739 7.80478 37.8961 7.38555 37.5402 7.06271C37.3356 6.86917 36.904 6.6222 36.2465 6.32104L35.2761 5.8693C34.6186 5.56813 34.1385 5.27239 33.8369 4.98207C33.3409 4.50904 33.0929 3.92297 33.0929 3.22426C33.0929 2.39626 33.3758 1.72697 33.9417 1.216C34.508 0.705424 35.2331 0.44994 36.1172 0.44994C36.7856 0.44994 37.3624 0.61136 37.8476 0.933811C38.2897 1.22413 38.6402 1.62207 38.8987 2.12723ZM42.6993 0.627231V4.99833H48.2303V0.627231H49.427V11.3854H48.2303V6.12749H42.6993V11.3854H41.5027V0.627231H42.6993ZM61.2249 9.9822C60.1416 11.0467 58.8126 11.579 57.2383 11.579C55.6644 11.579 54.3354 11.0467 53.2521 9.9822C52.1684 8.91768 51.6266 7.59497 51.6266 6.01446C51.6266 4.4231 52.1711 3.09768 53.2598 2.03859C54.349 0.979489 55.6752 0.44994 57.2383 0.44994C58.8017 0.44994 60.128 0.979489 61.2167 2.03859C62.3058 3.09768 62.8504 4.4231 62.8504 6.01446C62.8504 7.59497 62.3086 8.91768 61.2249 9.9822ZM60.3434 2.8693C59.4918 2.00917 58.4567 1.5791 57.2383 1.5791C56.0199 1.5791 54.9851 2.00917 54.1332 2.8693C53.2816 3.72942 52.8558 4.77807 52.8558 6.01446C52.8558 7.25084 53.2816 8.29949 54.1332 9.15962C54.9851 10.0197 56.0199 10.4498 57.2383 10.4498C58.4567 10.4498 59.4918 10.0197 60.3434 9.15962C61.1954 8.29949 61.6212 7.25084 61.6212 6.01446C61.6212 4.77807 61.1954 3.72942 60.3434 2.8693ZM65.0496 0.627231H67.0066C68.2358 0.627231 69.1414 0.880005 69.7236 1.38555C70.3815 1.94452 70.7102 2.7133 70.7102 3.69188C70.7102 4.53071 70.4273 5.24297 69.861 5.82904C69.2951 6.4151 68.4408 6.70813 67.2977 6.70813H66.2466V11.3854H65.0496V0.627231ZM66.2466 1.75639V5.57897H67.2329C67.9447 5.57897 68.5025 5.4071 68.9069 5.06297C69.3114 4.71884 69.5132 4.24039 69.5132 3.62723C69.5132 2.38 68.721 1.75639 67.1359 1.75639H66.2466Z" fill="white"/>
</g>
<defs>
<clipPath id="clip0_379_1313">
<rect width="72" height="12" fill="white"/>
</clipPath>
</defs>
</svg>
