<svg width="24" height="24" viewBox="0 0 24 24" fill="none" xmlns="http://www.w3.org/2000/svg">
<path d="M23.3135 23.3139C23.4856 23.1418 23.6088 22.8076 23.6129 22.5894L23.906 10.2284C23.9116 9.65929 23.4884 9.16964 22.8686 9.13287C22.3141 9.1002 21.7982 9.60138 21.7864 10.1561L21.5591 20.0705L2.18476 0.696184C1.76806 0.279489 1.09724 0.275322 0.686295 0.686264C0.275081 1.09748 0.279797 1.76831 0.696216 2.18473L20.0706 21.5591L10.1561 21.7864C9.60144 21.7981 9.12451 22.3135 9.13317 22.8683C9.14202 23.454 9.65966 23.9202 10.2287 23.9057L22.5895 23.6128C22.9384 23.6185 23.1361 23.4855 23.3137 23.3137L23.3135 23.3139Z" fill="#0D2CB0"/>
</svg>
