<svg width="8" height="16" viewBox="0 0 8 16" fill="none" xmlns="http://www.w3.org/2000/svg">
<path d="M0.201251 8.03986C0.2104 8.20877 0.277037 8.3692 0.389542 8.49331L6.77015 15.5671C6.94224 15.7575 7.20052 15.8394 7.44777 15.782C7.69491 15.7246 7.89334 15.5366 7.96838 15.2889C8.04342 15.041 7.98359 14.7712 7.81137 14.5809L1.87386 8.00005L7.81137 1.4192C7.9392 1.27788 8.00695 1.09038 7.99966 0.898056C7.99249 0.705619 7.91077 0.524058 7.77267 0.393237C7.63457 0.262414 7.45136 0.193083 7.2633 0.200549C7.07523 0.208014 6.89784 0.291643 6.77013 0.432967L0.389523 7.50678C0.258844 7.65101 0.190848 7.84321 0.201232 8.03968L0.201251 8.03986Z" fill="#AAACB4"/>
</svg>
