<svg width="24" height="24" viewBox="0 0 24 24" fill="none" xmlns="http://www.w3.org/2000/svg">
<path d="M18.7883 18.7884C18.8915 18.6852 18.9655 18.4847 18.9679 18.3538L19.1438 10.9371C19.1472 10.5957 18.8933 10.3019 18.5214 10.2798C18.1887 10.2602 17.8791 10.5609 17.8721 10.8938L17.7357 16.8424L6.11105 5.21781C5.86103 4.96779 5.45854 4.96529 5.21197 5.21186C4.96524 5.45858 4.96807 5.86108 5.21793 6.11093L16.8425 17.7355L10.8939 17.8719C10.5611 17.879 10.2749 18.1882 10.2801 18.5211C10.2854 18.8725 10.596 19.1522 10.9374 19.1435L18.3539 18.9678C18.5632 18.9712 18.6818 18.8914 18.7884 18.7883L18.7883 18.7884Z" fill="#0D2CB0"/>
</svg>
