<svg width="24" height="24" viewBox="0 0 24 24" fill="none" xmlns="http://www.w3.org/2000/svg">
<path d="M12.0397 16.7989C12.2086 16.7898 12.369 16.7231 12.4931 16.6106L19.5669 10.23C19.7573 10.0579 19.8392 9.79966 19.7818 9.55241C19.7244 9.30527 19.5364 9.10685 19.2887 9.0318C19.0408 8.95676 18.771 9.0166 18.5807 9.18882L11.9999 15.1263L5.419 9.18882C5.27768 9.06098 5.09019 8.99323 4.89786 9.00052C4.70542 9.00769 4.52386 9.08942 4.39304 9.22751C4.26222 9.36561 4.19288 9.54882 4.20035 9.73689C4.20782 9.92495 4.29144 10.1023 4.43277 10.2301L11.5066 16.6107C11.6508 16.7413 11.843 16.8093 12.0395 16.799L12.0397 16.7989Z" fill="#0D2CB0"/>
</svg>
