<svg width="40" height="40" viewBox="0 0 40 40" fill="none" xmlns="http://www.w3.org/2000/svg">
<path d="M21.813 20L29.6242 12.1888C30.1252 11.6879 30.1254 10.8769 29.6242 10.3758C29.1232 9.87478 28.3122 9.87467 27.8112 10.3758L20 18.187L12.1888 10.3758C11.6879 9.87482 10.8768 9.87467 10.3758 10.3758C9.87475 10.8768 9.87471 11.6877 10.3758 12.1888L18.1869 20L10.3758 27.8112C9.87588 28.3111 9.87588 29.1244 10.3758 29.6242C10.8767 30.1252 11.6878 30.1253 12.1888 29.6242L19.9999 21.8129L27.8111 29.6241C28.312 30.1252 29.1231 30.1252 29.624 29.6241C30.1251 29.1232 30.1252 28.3122 29.6241 27.811L21.813 20Z" fill="#0D2CB0"/>
</svg>
