<svg width="20" height="20" viewBox="0 0 20 20" fill="none" xmlns="http://www.w3.org/2000/svg">
<path d="M10.9065 10L14.8121 6.09441C15.0626 5.84396 15.0627 5.43843 14.8121 5.18792C14.5616 4.93739 14.1561 4.93733 13.9056 5.1879L10 9.0935L6.09441 5.18792C5.84396 4.93741 5.43841 4.93733 5.1879 5.18788C4.93738 5.43839 4.93736 5.84386 5.1879 6.09439L9.09346 10L5.18788 13.9056C4.93794 14.1555 4.93794 14.5622 5.18788 14.8121C5.43837 15.0626 5.84388 15.0627 6.09439 14.8121L9.99996 10.9065L13.9055 14.8121C14.156 15.0626 14.5615 15.0626 14.812 14.8121C15.0625 14.5616 15.0626 14.1561 14.812 13.9055L10.9065 10Z" fill="white"/>
</svg>
