<svg width="27" height="28" viewBox="0 0 27 28" fill="none" xmlns="http://www.w3.org/2000/svg">
<path d="M13.4008 21.7615C13.44 21.7992 13.4832 21.8331 13.5292 21.8626L13.5934 21.8952L13.6747 21.9374L13.7592 21.9636L13.8335 21.9831C13.945 22.0056 14.0606 22.0056 14.1723 21.9831L14.2467 21.9636L14.3312 21.9374L14.4124 21.8952L14.4766 21.8626C14.5229 21.8331 14.5661 21.7992 14.6055 21.7615L20.7518 15.8242C21.0827 15.5058 21.0827 14.9891 20.7518 14.6706C20.421 14.3522 19.8846 14.3522 19.5537 14.6706L14.8461 19.2068V1.81468C14.8461 1.36483 14.4672 1 14 1C13.5328 1 13.1539 1.36483 13.1539 1.81468V19.2068L8.4463 14.6739C8.11532 14.3554 7.57894 14.3554 7.24823 14.6739C6.91726 14.9925 6.91726 15.509 7.24823 15.8274L13.4008 21.7615Z" fill="#0D2CB0" stroke="#0D2CB0" stroke-width="0.4"/>
<path d="M25.1696 21C24.711 21 24.3392 21.3475 24.3392 21.7764V25.4442H2.66084V21.7764C2.66084 21.3475 2.28896 21 1.83042 21C1.37188 21 1 21.3475 1 21.7764V26.2236C1 26.4296 1.08759 26.627 1.24329 26.7725C1.39899 26.9181 1.61007 27 1.83042 27H25.1696C25.3899 27 25.601 26.9181 25.7567 26.7725C25.9124 26.627 26 26.4296 26 26.2236V21.7764C26 21.5704 25.9124 21.373 25.7567 21.2275C25.601 21.0817 25.3899 21 25.1696 21Z" fill="#0D2CB0" stroke="#0D2CB0" stroke-width="0.4"/>
</svg>
