<svg width="16" height="11" viewBox="0 0 16 11" fill="none" xmlns="http://www.w3.org/2000/svg">
<path d="M14.6864 0.600006H1.31503C1.17873 0.600006 1.04783 0.65382 0.951391 0.749467C0.854941 0.845113 0.800781 0.974918 0.800781 1.11007L0.800887 10.2899C0.800887 10.4252 0.855047 10.5549 0.951497 10.6505C1.04795 10.7462 1.17884 10.8 1.31513 10.8H14.6865C14.8229 10.8 14.9537 10.7462 15.0502 10.6505C15.1466 10.5549 15.2008 10.4251 15.2008 10.2899L15.2007 1.11007C15.2007 0.97491 15.1465 0.845102 15.0501 0.749467C14.9536 0.65382 14.8227 0.600006 14.6864 0.600006ZM13.843 1.62005L8.00097 6.07639L2.15897 1.62005H13.843ZM1.82958 9.7796V2.6557L7.68759 7.12442C7.77746 7.19284 7.88759 7.22984 8.00078 7.22984C8.11398 7.22984 8.2241 7.19284 8.31398 7.12442L14.172 2.6557V9.7796H1.82958Z" fill="#0D2CB0" stroke="#0D2CB0" stroke-width="0.4"/>
</svg>
