<svg width="24" height="24" viewBox="0 0 24 24" fill="none" xmlns="http://www.w3.org/2000/svg">
<path d="M18.6864 6.60001H5.31503C5.17873 6.60001 5.04783 6.65382 4.95139 6.74947C4.85494 6.84511 4.80078 6.97492 4.80078 7.11007L4.80089 16.2899C4.80089 16.4252 4.85505 16.5549 4.9515 16.6505C5.04795 16.7462 5.17884 16.8 5.31513 16.8H18.6865C18.8229 16.8 18.9537 16.7462 19.0502 16.6505C19.1466 16.5549 19.2008 16.4251 19.2008 16.2899L19.2007 7.11007C19.2007 6.97491 19.1465 6.8451 19.0501 6.74947C18.9536 6.65382 18.8227 6.60001 18.6864 6.60001ZM17.843 7.62005L12.001 12.0764L6.15897 7.62005H17.843ZM5.82958 15.7796V8.6557L11.6876 13.1244C11.7775 13.1928 11.8876 13.2298 12.0008 13.2298C12.114 13.2298 12.2241 13.1928 12.314 13.1244L18.172 8.6557V15.7796H5.82958Z" fill="#0D2CB0" stroke="#0D2CB0" stroke-width="0.4"/>
</svg>
