<svg width="12" height="12" viewBox="0 0 12 12" fill="none" xmlns="http://www.w3.org/2000/svg">
<path d="M0 1C0 0.447716 0.447715 0 1 0H2C2.55228 0 3 0.447715 3 1V2C3 2.55229 2.55228 3 2 3H1C0.447715 3 0 2.55229 0 2V1Z" fill="#0D2CB0"/>
<path d="M4.5 1C4.5 0.447716 4.94772 0 5.5 0H6.5C7.05228 0 7.5 0.447715 7.5 1V2C7.5 2.55229 7.05228 3 6.5 3H5.5C4.94772 3 4.5 2.55229 4.5 2V1Z" fill="#0D2CB0"/>
<path d="M9 1C9 0.447716 9.44772 0 10 0H11C11.5523 0 12 0.447715 12 1V2C12 2.55229 11.5523 3 11 3H10C9.44772 3 9 2.55229 9 2V1Z" fill="#0D2CB0"/>
<path d="M0 5.5C0 4.94772 0.447715 4.5 1 4.5H2C2.55228 4.5 3 4.94772 3 5.5V6.5C3 7.05229 2.55228 7.5 2 7.5H1C0.447715 7.5 0 7.05229 0 6.5V5.5Z" fill="#0D2CB0"/>
<path d="M4.5 5.5C4.5 4.94772 4.94772 4.5 5.5 4.5H6.5C7.05228 4.5 7.5 4.94772 7.5 5.5V6.5C7.5 7.05229 7.05228 7.5 6.5 7.5H5.5C4.94772 7.5 4.5 7.05229 4.5 6.5V5.5Z" fill="#0D2CB0"/>
<path d="M9 5.5C9 4.94772 9.44772 4.5 10 4.5H11C11.5523 4.5 12 4.94772 12 5.5V6.5C12 7.05229 11.5523 7.5 11 7.5H10C9.44772 7.5 9 7.05229 9 6.5V5.5Z" fill="#0D2CB0"/>
<path d="M0 10C0 9.44772 0.447715 9 1 9H2C2.55228 9 3 9.44772 3 10V11C3 11.5523 2.55228 12 2 12H1C0.447715 12 0 11.5523 0 11V10Z" fill="#0D2CB0"/>
<path d="M4.5 10C4.5 9.44772 4.94772 9 5.5 9H6.5C7.05228 9 7.5 9.44772 7.5 10V11C7.5 11.5523 7.05228 12 6.5 12H5.5C4.94772 12 4.5 11.5523 4.5 11V10Z" fill="#0D2CB0"/>
<path d="M9 10C9 9.44772 9.44772 9 10 9H11C11.5523 9 12 9.44772 12 10V11C12 11.5523 11.5523 12 11 12H10C9.44772 12 9 11.5523 9 11V10Z" fill="#0D2CB0"/>
</svg>
