<svg width="17" height="16" viewBox="0 0 17 16" fill="none" xmlns="http://www.w3.org/2000/svg">
<path d="M13.2636 11.6647C14.4028 10.2692 14.9621 8.48935 14.826 6.69287C14.69 4.89656 13.8689 3.22127 12.5325 2.01323C11.1963 0.80528 9.44689 0.156845 7.64605 0.202245C5.84521 0.247641 4.13074 0.983327 2.85696 2.25721C1.58306 3.53096 0.847436 5.24542 0.802037 7.04637C0.756642 8.84724 1.4051 10.5967 2.61299 11.9329C3.82093 13.2694 5.49619 14.0905 7.29255 14.2265C9.08884 14.3625 10.8686 13.8032 12.2643 12.664L15.2187 15.6114C15.398 15.7785 15.6513 15.8401 15.8872 15.7739C16.123 15.7076 16.3074 15.5233 16.3737 15.2874C16.4399 15.0515 16.3783 14.7982 16.2112 14.6189L13.2636 11.6647ZM2.23023 7.23299C2.2317 5.36678 3.16251 3.62372 4.71253 2.58429C6.26254 1.54489 8.22834 1.34565 9.95519 2.0529C11.682 2.76016 12.9435 4.28098 13.3195 6.10894C13.6954 7.93707 13.1362 9.83217 11.8282 11.1636L11.7979 11.1894L11.772 11.2197C10.7186 12.2593 9.29628 12.8393 7.81616 12.8333C6.33621 12.8273 4.91876 12.2355 3.87365 11.1874C2.82871 10.1392 2.24099 8.7201 2.23936 7.23996L2.23023 7.23299Z" fill="#0D2CB0"/>
</svg>
