<svg width="10" height="10" viewBox="0 0 10 10" fill="none" xmlns="http://www.w3.org/2000/svg">
<path d="M5.90651 5L9.81208 1.09441C10.0626 0.843958 10.0627 0.438429 9.8121 0.18792C9.56161 -0.0626076 9.15612 -0.0626662 8.90559 0.187901L5 4.0935L1.09441 0.18792C0.843959 -0.0625881 0.438411 -0.0626662 0.187903 0.187881C-0.0626246 0.43839 -0.0626442 0.84386 0.187903 1.09439L4.09346 5L0.187884 8.90558C-0.0620582 9.15553 -0.0620582 9.56219 0.187884 9.81209C0.438372 10.0626 0.843881 10.0627 1.09439 9.81209L4.99996 5.90647L8.90554 9.81205C9.15599 10.0626 9.56153 10.0626 9.81202 9.81207C10.0625 9.56158 10.0626 9.15609 9.81204 8.90552L5.90651 5Z" fill="white"/>
</svg>
