<svg width="25" height="24" viewBox="0 0 25 24" fill="none" xmlns="http://www.w3.org/2000/svg">
<path d="M18.936 18.7884C19.0393 18.6852 19.1132 18.4847 19.1156 18.3538L19.2915 10.9371C19.2949 10.5957 19.041 10.3019 18.6691 10.2798C18.3364 10.2602 18.0268 10.5609 18.0198 10.8938L17.8834 16.8424L6.25876 5.21781C6.00874 4.96779 5.60624 4.96529 5.35968 5.21186C5.11295 5.45858 5.11578 5.86108 5.36563 6.11093L16.9902 17.7355L11.0416 17.8719C10.7088 17.879 10.4226 18.1882 10.4278 18.5211C10.4331 18.8725 10.7437 19.1522 11.0851 19.1435L18.5016 18.9678C18.7109 18.9712 18.8296 18.8914 18.9361 18.7883L18.936 18.7884Z" fill="white"/>
</svg>
