<svg width="12" height="20" viewBox="0 0 12 20" fill="none" xmlns="http://www.w3.org/2000/svg">
<path d="M6.00017 0.400005C5.85413 0.400005 5.66006 0.489514 5.56578 0.580362L0.197077 5.70033C-0.0467736 5.9394 -0.0749696 6.32668 0.172406 6.60526C0.39379 6.85437 0.825313 6.86062 1.06566 6.63026L5.36843 2.52037L5.36843 18.9601C5.36843 19.3136 5.65127 19.6 5.99997 19.6C6.34889 19.6 6.6315 19.3134 6.6315 18.9601L6.6315 2.52037L10.9343 6.63026C11.1746 6.86062 11.5956 6.84432 11.8273 6.60526C12.072 6.35302 12.0502 5.93559 11.8026 5.70033L6.43416 0.580362C6.28855 0.429913 6.14823 0.402456 5.99998 0.400005L6.00017 0.400005Z" fill="white"/>
</svg>
