<svg width="16" height="8" viewBox="0 0 16 8" fill="none" xmlns="http://www.w3.org/2000/svg">
<path d="M8.03967 7.79893C8.20857 7.78978 8.369 7.72315 8.49312 7.61064L15.5669 1.23004C15.7573 1.05794 15.8392 0.799661 15.7818 0.552412C15.7244 0.305272 15.5364 0.106846 15.2887 0.0318043C15.0408 -0.0432407 14.771 0.0165977 14.5807 0.188816L7.99985 6.12632L1.419 0.188816C1.27768 0.0609793 1.09019 -0.00677094 0.897858 0.00052435C0.70542 0.00769494 0.523859 0.0894162 0.393039 0.227514C0.262215 0.365612 0.192884 0.548823 0.20035 0.736886C0.207816 0.924949 0.291444 1.10235 0.432768 1.23005L7.50658 7.61066C7.65082 7.74134 7.84301 7.80934 8.03948 7.79895L8.03967 7.79893Z" fill="#AAACB4"/>
</svg>
