<svg width="32" height="20" viewBox="0 0 32 20" fill="none" xmlns="http://www.w3.org/2000/svg">
<path d="M32 10.0003C32 9.75688 31.8508 9.43343 31.6994 9.27629L23.1661 0.328463C22.7677 -0.0779549 22.1222 -0.124948 21.6579 0.287344C21.2427 0.656317 21.2323 1.37552 21.6162 1.7761L28.4661 8.94739H1.06659C0.477294 8.94739 0 9.41879 0 9.99995C0 10.5815 0.477684 11.0525 1.06659 11.0525H28.4661L21.6162 18.2238C21.2323 18.6243 21.2595 19.326 21.6579 19.7122C22.0783 20.1201 22.774 20.0837 23.1661 19.6711L31.6994 10.7236C31.9502 10.4809 31.9959 10.2471 32 9.99997V10.0003Z" fill="#676972"/>
</svg>
