<svg width="32" height="20" viewBox="0 0 32 20" fill="none" xmlns="http://www.w3.org/2000/svg">
<path d="M0 10.0003C0 9.75688 0.149181 9.43343 0.300594 9.27629L8.83387 0.328463C9.23232 -0.0779549 9.87779 -0.124948 10.3421 0.287344C10.7573 0.656317 10.7677 1.37552 10.3838 1.7761L3.53393 8.94739H30.9334C31.5227 8.94739 32 9.41879 32 9.99995C32 10.5815 31.5223 11.0525 30.9334 11.0525H3.53393L10.3838 18.2238C10.7677 18.6243 10.7405 19.326 10.3421 19.7122C9.92169 20.1201 9.22597 20.0837 8.83387 19.6711L0.300594 10.7236C0.0498466 10.4809 0.00408554 10.2471 0 9.99997V10.0003Z" fill="#AAACB4"/>
</svg>
