<svg width="8" height="16" viewBox="0 0 8 16" fill="none" xmlns="http://www.w3.org/2000/svg">
<path d="M7.79875 8.03986C7.7896 8.20877 7.72296 8.3692 7.61046 8.49331L1.22985 15.5671C1.05776 15.7575 0.799478 15.8394 0.552229 15.782C0.305089 15.7246 0.106663 15.5366 0.0316211 15.2889C-0.0434238 15.041 0.0164145 14.7712 0.188633 14.5809L6.12614 8.00005L0.188632 1.4192C0.0607955 1.27788 -0.00695468 1.09038 0.000340593 0.898056C0.00751117 0.705619 0.0892325 0.524058 0.22733 0.393237C0.365428 0.262414 0.548639 0.193083 0.736702 0.200549C0.924766 0.208014 1.10216 0.291643 1.22987 0.432967L7.61048 7.50678C7.74116 7.65101 7.80915 7.84321 7.79877 8.03968L7.79875 8.03986Z" fill="#676972"/>
</svg>
