<svg width="10" height="8" viewBox="0 0 10 8" fill="none" xmlns="http://www.w3.org/2000/svg">
<path d="M9.375 0C9.7202 0 10 0.279799 10 0.625C10 0.970201 9.7202 1.25 9.375 1.25H0.625C0.279799 1.25 0 0.970201 0 0.625C0 0.279799 0.279799 0 0.625 0H9.375ZM9.375 3.375C9.7202 3.375 10 3.6548 10 4C10 4.3452 9.7202 4.625 9.375 4.625H0.625C0.279799 4.625 0 4.3452 0 4C0 3.6548 0.279799 3.375 0.625 3.375H9.375ZM9.375 6.75C9.7202 6.75 10 7.0298 10 7.375C10 7.7202 9.7202 8 9.375 8H0.625C0.279799 8 0 7.7202 0 7.375C0 7.0298 0.279799 6.75 0.625 6.75H9.375Z" fill="white"/>
</svg>
