<svg width="20" height="20" viewBox="0 0 20 20" fill="none" xmlns="http://www.w3.org/2000/svg">
<path d="M11.813 10L19.6242 2.18882C20.1252 1.68792 20.1254 0.876858 19.6242 0.375841C19.1232 -0.125215 18.3122 -0.125332 17.8112 0.375802L10 8.187L2.18882 0.375841C1.68792 -0.125176 0.876823 -0.125332 0.375806 0.375763C-0.125249 0.87678 -0.125288 1.68772 0.375806 2.18878L8.18691 10L0.375767 17.8112C-0.124116 18.3111 -0.124116 19.1244 0.375767 19.6242C0.876745 20.1252 1.68776 20.1253 2.18878 19.6242L9.99992 11.8129L17.8111 19.6241C18.312 20.1252 19.1231 20.1252 19.624 19.6241C20.1251 19.1232 20.1252 18.3122 19.6241 17.811L11.813 10Z" fill="#AAACB4"/>
</svg>
