<svg width="24" height="24" viewBox="0 0 24 24" fill="none" xmlns="http://www.w3.org/2000/svg">
<path d="M13.0878 12L17.7745 7.31329C18.0751 7.01275 18.0752 6.52611 17.7745 6.2255C17.4739 5.92487 16.9873 5.9248 16.6867 6.22548L12 10.9122L7.31329 6.2255C7.01275 5.92489 6.52609 5.9248 6.22548 6.22546C5.92485 6.52607 5.92483 7.01263 6.22548 7.31327L10.9121 12L6.22546 16.6867C5.92553 16.9866 5.92553 17.4746 6.22546 17.7745C6.52605 18.0751 7.01266 18.0752 7.31327 17.7745L12 13.0878L16.6866 17.7745C16.9872 18.0751 17.4738 18.0751 17.7744 17.7745C18.0751 17.4739 18.0751 16.9873 17.7744 16.6866L13.0878 12Z" fill="#AAACB4"/>
</svg>
