<svg width="12" height="12" viewBox="0 0 12 12" fill="none" xmlns="http://www.w3.org/2000/svg">
<path d="M7.08781 6.00001L11.7745 1.31329C12.0751 1.01275 12.0752 0.526115 11.7745 0.225505C11.4739 -0.0751291 10.9873 -0.0751994 10.6867 0.225481L6 4.9122L1.31329 0.225505C1.01275 -0.0751057 0.526094 -0.0751994 0.225484 0.225458C-0.0751496 0.526068 -0.075173 1.01263 0.225484 1.31327L4.91215 6.00001L0.22546 10.6867C-0.0744699 10.9866 -0.0744699 11.4746 0.22546 11.7745C0.526047 12.0751 1.01266 12.0752 1.31327 11.7745L5.99995 7.08777L10.6866 11.7745C10.9872 12.0751 11.4738 12.0751 11.7744 11.7745C12.0751 11.4739 12.0751 10.9873 11.7744 10.6866L7.08781 6.00001Z" fill="#AAACB4"/>
</svg>
