<svg width="44" height="44" viewBox="0 0 44 44" fill="none" xmlns="http://www.w3.org/2000/svg">
<path d="M12.2925 38.7746C11.9801 38.74 11.7719 38.4273 11.8065 38.1498L27.9507 6.48629C27.9853 6.17388 28.298 6.00024 28.6104 6.03487H31.4226C31.735 6.0695 31.9433 6.38216 31.9086 6.65968L15.7644 38.2885C15.7298 38.6009 15.4171 38.7745 15.1047 38.7399L12.2925 38.7746Z" fill="url(#paint0_linear_1003_510)"/>
<path d="M19.0272 9.40259C19.0272 8.95117 18.9577 8.49997 18.784 8.08322C18.6104 7.66667 18.3675 7.31941 18.0897 7.007C17.8119 6.69459 17.4649 6.45144 17.0481 6.27778C16.6662 6.10414 16.2496 6 15.7982 6H13.229C12.7775 6 12.361 6.10414 11.9791 6.27778C11.5972 6.45142 11.2499 6.69433 10.9375 7.007C10.6597 7.31941 10.4168 7.66672 10.2431 8.08322C10.0695 8.49977 10 8.91653 10 9.40259V17.1449C10 17.5963 10.0695 18.0475 10.2431 18.4642C10.4168 18.8808 10.6597 19.2281 10.9375 19.5405C11.2152 19.8529 11.5623 20.096 11.9791 20.2697C12.361 20.4433 12.7776 20.5475 13.229 20.5475H15.7982C16.2496 20.5475 16.6662 20.4433 17.0481 20.2697C17.43 20.096 17.7773 19.8531 18.0897 19.5405C18.3675 19.2281 18.6104 18.8807 18.784 18.4642C18.9577 18.0477 19.0272 17.6309 19.0272 17.1449V9.40259ZM15.6943 17.2837C15.5902 17.4225 15.4165 17.4574 15.2429 17.4574H13.7847C13.611 17.4574 13.4723 17.3879 13.3333 17.2837C13.2291 17.145 13.1596 17.006 13.1596 16.8323V9.74971C13.1596 9.57606 13.2291 9.40242 13.3333 9.29829C13.4374 9.15952 13.6111 9.12464 13.7847 9.12464H15.2429C15.4165 9.12464 15.5553 9.19415 15.6943 9.29829C15.7984 9.43706 15.8679 9.57607 15.8679 9.74971V16.8323C15.9026 17.006 15.8331 17.145 15.6943 17.2837Z" fill="url(#paint1_linear_1003_510)"/>
<path d="M34.199 27.7688C34.199 27.3173 34.1295 26.8661 33.9559 26.4494C33.7823 26.0328 33.5393 25.6856 33.2616 25.3732C32.9838 25.0607 32.6368 24.8176 32.22 24.6439C31.838 24.4703 31.4215 24.3662 30.9701 24.3662H28.4008C27.9494 24.3662 27.5329 24.4703 27.151 24.6439C26.769 24.8176 26.4217 25.0605 26.1093 25.3732C25.8316 25.6856 25.5887 26.0329 25.415 26.4494C25.2414 26.8659 25.1719 27.2827 25.1719 27.7688V35.511C25.1719 35.9624 25.2414 36.4137 25.415 36.8304C25.5887 37.247 25.8316 37.5942 26.1093 37.9066C26.3871 38.219 26.7342 38.4622 27.151 38.6358C27.5329 38.8095 27.9494 38.9136 28.4008 38.9136H30.9701C31.4215 38.9136 31.8381 38.8095 32.22 38.6358C32.6019 38.4622 32.9492 38.2193 33.2616 37.9066C33.5394 37.5942 33.7823 37.2469 33.9559 36.8304C34.1295 36.4139 34.199 35.9971 34.199 35.511V27.7688ZM30.8659 35.6152C30.7618 35.754 30.5881 35.7888 30.4145 35.7888H28.9563C28.7827 35.7888 28.6439 35.7193 28.5049 35.6152C28.4008 35.4764 28.3313 35.3374 28.3313 35.1638L28.3315 28.0811C28.3315 27.9075 28.401 27.7339 28.5051 27.6297C28.6093 27.491 28.7829 27.4561 28.9566 27.4561L30.4145 27.4563C30.5881 27.4563 30.7269 27.5258 30.8659 27.63C30.9701 27.7687 31.0396 27.9078 31.0396 28.0814V35.164C31.0396 35.3377 31.0049 35.5111 30.8659 35.6152Z" fill="url(#paint2_linear_1003_510)"/>
<defs>
<linearGradient id="paint0_linear_1003_510" x1="10.9717" y1="5.03566" x2="33.8615" y2="36.1614" gradientUnits="userSpaceOnUse">
<stop stop-color="#3D78EB"/>
<stop offset="1" stop-color="#0D2CB0"/>
<stop offset="1" stop-color="#0D2CB0"/>
</linearGradient>
<linearGradient id="paint1_linear_1003_510" x1="9.62696" y1="5.55801" x2="19.7646" y2="19.4866" gradientUnits="userSpaceOnUse">
<stop stop-color="#3D78EB"/>
<stop offset="1" stop-color="#0D2CB0"/>
<stop offset="1" stop-color="#0D2CB0"/>
</linearGradient>
<linearGradient id="paint2_linear_1003_510" x1="24.7988" y1="23.9242" x2="34.9365" y2="37.8527" gradientUnits="userSpaceOnUse">
<stop stop-color="#3D78EB"/>
<stop offset="1" stop-color="#0D2CB0"/>
<stop offset="1" stop-color="#0D2CB0"/>
</linearGradient>
</defs>
</svg>
