<svg width="24" height="24" viewBox="0 0 24 24" fill="none" xmlns="http://www.w3.org/2000/svg">
<path d="M7.92077 4.80107C7.83329 4.80549 7.75274 4.82174 7.67445 4.83859C7.4659 4.8834 7.26454 4.9686 7.05346 5.07411C6.63326 5.28418 6.19357 5.59019 5.83799 5.9574L5.83261 5.96277C4.94045 6.85872 4.67513 8.0755 4.85286 9.22825C5.03081 10.3834 5.62671 11.501 6.4805 12.3545L11.6475 17.5206C12.5013 18.3742 13.619 18.97 14.7743 19.1479C15.9273 19.3256 17.1443 19.0603 18.0404 18.1683C18.0423 18.1664 18.044 18.1646 18.0458 18.163C18.413 17.8075 18.7191 17.3679 18.9292 16.9477C19.0347 16.7367 19.1146 16.53 19.1594 16.3215C19.2042 16.1129 19.2548 15.8724 19.0631 15.5934C19.0294 15.5456 18.9877 15.504 18.94 15.4703L16.161 13.4575C16.0621 13.3861 15.9409 13.3523 15.8192 13.3621C15.6977 13.3719 15.5834 13.4247 15.4972 13.511L14.9243 14.0837C14.7024 14.3055 14.4949 14.3894 14.33 14.3997C14.165 14.4097 14.0183 14.3663 13.8373 14.1855L9.81615 10.1651C9.63533 9.98418 9.58657 9.83206 9.59673 9.66718C9.60689 9.50228 9.69604 9.29484 9.91798 9.07306L10.4854 8.5002C10.5717 8.41393 10.6245 8.29982 10.6343 8.17818C10.6441 8.05654 10.6103 7.93538 10.539 7.83643L8.53115 5.06339C8.49744 5.01572 8.45586 4.97401 8.40805 4.94032C8.26858 4.84449 8.13341 4.80768 8.01187 4.80111C7.98151 4.79956 7.94996 4.79967 7.9208 4.80111L7.92077 4.80107ZM7.84046 5.86634L9.45211 8.08793L9.18977 8.35033C8.8323 8.70775 8.60271 9.1379 8.57404 9.60296C8.54537 10.068 8.73502 10.5401 9.08807 10.8931L13.1089 14.9081C13.462 15.261 13.9288 15.4559 14.3939 15.4273C14.8592 15.3986 15.2947 15.169 15.6522 14.8116L15.9146 14.5494L18.1366 16.1553C18.1142 16.2391 18.0764 16.3506 18.008 16.4873C17.8519 16.7994 17.5855 17.176 17.3228 17.4294C17.321 17.4312 17.3192 17.4329 17.3174 17.4347C16.6727 18.0794 15.8366 18.2705 14.9294 18.1307C14.0223 17.991 13.0721 17.4944 12.3701 16.7924L7.20866 11.6263C6.50653 10.9244 6.00981 9.97985 5.87011 9.07289C5.73028 8.16583 5.92138 7.32461 6.56616 6.67993L6.57154 6.67455C6.82503 6.41179 7.20162 6.14544 7.51379 5.9894C7.64776 5.92236 7.75676 5.88914 7.84042 5.8662L7.84046 5.86634Z" fill="#0D2CB0" stroke="#0D2CB0" stroke-width="0.4"/>
</svg>
