<svg width="10" height="18" viewBox="0 0 10 18" fill="none" xmlns="http://www.w3.org/2000/svg">
<path d="M8.42877 4.02867V12.2572C8.42877 14.1478 6.89071 15.6858 5.0002 15.6858C3.10968 15.6858 1.57162 14.1478 1.57162 12.2572V4.02867C1.57162 2.8945 2.4946 1.97153 3.62877 1.97153C4.76294 1.97153 5.68591 2.8945 5.68591 4.02867V10.2001C5.68591 10.5779 5.37802 10.8858 5.0002 10.8858C4.62237 10.8858 4.31448 10.5779 4.31448 10.2001V4.71438H2.94305V10.2001C2.94305 11.3363 3.86397 12.2572 5.0002 12.2572C6.13642 12.2572 7.05734 11.3363 7.05734 10.2001V4.02867C7.05734 2.13541 5.52202 0.600098 3.62877 0.600098C1.73551 0.600098 0.200195 2.13541 0.200195 4.02867V12.2572C0.200195 14.9082 2.34922 17.0572 5.0002 17.0572C7.65117 17.0572 9.80019 14.9082 9.80019 12.2572V4.02867H8.42877Z" fill="#0D2CB0"/>
</svg>
