<svg width="140" height="140" viewBox="0 0 140 140" fill="none" xmlns="http://www.w3.org/2000/svg">
<path d="M128.145 44.1543L120.976 47.7038L120.209 46.1551L125.916 43.3297L124.291 40.0461L118.584 42.8715L117.817 41.3229L124.986 37.7734L128.145 44.1543Z" fill="#0D2CB0"/>
<path d="M125.214 49.9007C124.669 50.1988 124.305 50.6151 124.12 51.1497C123.946 51.6812 123.955 52.2636 124.146 52.8968C124.411 53.775 124.926 54.3383 125.691 54.5865L125.306 56.19C123.965 55.77 123.071 54.8195 122.625 53.3387C122.249 52.0928 122.324 50.9729 122.848 49.9791C123.383 48.9822 124.233 48.3083 125.397 47.9572C126.541 47.6123 127.61 47.7022 128.604 48.227C129.608 48.7487 130.288 49.6019 130.645 50.7865C130.984 51.9099 130.868 52.9476 130.297 53.8996C129.73 54.8618 128.884 55.5122 127.761 55.851C127.587 55.9033 127.351 55.9522 127.053 55.9976L125.214 49.9007ZM126.558 49.4789L127.916 53.9826C128.505 53.6824 128.896 53.2803 129.09 52.7764C129.286 52.2826 129.303 51.7651 129.14 51.2239C128.955 50.6111 128.632 50.1513 128.172 49.8444C127.712 49.5376 127.174 49.4157 126.558 49.4789Z" fill="#0D2CB0"/>
<path d="M132.913 62.016C133.042 63.1071 132.744 64.0875 132.02 64.9571C131.306 65.8254 130.366 66.3284 129.201 66.466C128.025 66.6049 126.989 66.3352 126.093 65.657C125.196 64.9787 124.684 64.0941 124.555 63.003C124.412 61.7954 124.748 60.816 125.561 60.0647L121.255 60.5732L121.053 58.8571L132.175 57.5437L132.378 59.2597L131.234 59.3948C132.211 59.9347 132.77 60.8084 132.913 62.016ZM126.663 60.6596C126.242 61.1926 126.075 61.8193 126.16 62.5396C126.245 63.2599 126.554 63.8303 127.087 64.2507C127.63 64.6698 128.268 64.8363 128.998 64.7499C129.729 64.6636 130.305 64.354 130.725 63.821C131.156 63.2868 131.329 62.6595 131.244 61.9392C131.159 61.2188 130.845 60.6491 130.301 60.2299C129.768 59.8096 129.136 59.6425 128.406 59.7288C127.675 59.8151 127.094 60.1254 126.663 60.6596Z" fill="#0D2CB0"/>
<path d="M128.374 70.0164C127.759 70.1096 127.274 70.3757 126.918 70.8148C126.572 71.2545 126.381 71.8045 126.343 72.4648C126.291 73.3806 126.582 74.0863 127.216 74.5819L126.304 75.9562C125.188 75.102 124.674 73.9027 124.763 72.3586C124.837 71.0594 125.291 70.0329 126.124 69.2791C126.968 68.526 127.998 68.184 129.212 68.2533C130.404 68.3213 131.378 68.7721 132.131 69.6057C132.896 70.4399 133.243 71.4747 133.172 72.71C133.105 73.8814 132.641 74.8165 131.778 75.5152C130.915 76.2245 129.898 76.5458 128.726 76.479C128.545 76.4687 128.307 76.4337 128.011 76.3741L128.374 70.0164ZM129.78 70.0806L129.513 74.777C130.169 74.6969 130.674 74.4533 131.029 74.0461C131.382 73.6496 131.575 73.1692 131.608 72.6047C131.644 71.9658 131.499 71.4233 131.172 70.9773C130.844 70.5313 130.381 70.2324 129.78 70.0806Z" fill="#0D2CB0"/>
<path d="M133.087 81.0031L134.554 81.334L133.569 85.7042L132.101 85.3733L133.087 81.0031ZM131.009 85.1269L130.717 86.4223L122.913 84.662L123.286 83.0076L128.249 84.1271L124.187 79.012L124.479 77.7165L132.283 79.4768L131.91 81.1312L126.962 80.0152L131.009 85.1269Z" fill="#0D2CB0"/>
<path d="M127.436 95.2267L125.887 94.6181L126.841 92.1908L120.944 89.8735L121.576 88.2652L127.473 90.5825L128.433 88.1403L129.981 88.7489L127.436 95.2267Z" fill="#0D2CB0"/>
<path d="M123.469 102.428L122.803 103.576L115.884 99.5604L116.735 98.0936L121.136 100.648L118.791 94.551L119.458 93.4025L126.377 97.4183L125.526 98.8851L121.139 96.3391L123.469 102.428Z" fill="#0D2CB0"/>
<path d="M111.461 111.18C110.656 111.508 109.939 111.377 109.308 110.786C108.818 110.327 108.574 109.784 108.576 109.157C108.579 108.546 108.868 107.933 109.444 107.318L112.245 104.329L118.083 109.798L115.501 112.554C114.94 113.153 114.354 113.474 113.744 113.517C113.135 113.574 112.593 113.381 112.118 112.936C111.565 112.418 111.346 111.833 111.461 111.18ZM114.515 111.454L115.882 109.994L114.586 108.78L113.218 110.24C112.737 110.754 112.714 111.215 113.15 111.623C113.578 112.024 114.033 111.968 114.515 111.454ZM110.651 108.229C110.155 108.759 110.137 109.239 110.596 109.669C110.799 109.858 111.02 109.934 111.26 109.896C111.508 109.865 111.749 109.726 111.982 109.476L113.547 107.807L112.215 106.56L110.651 108.229Z" fill="#0D2CB0"/>
<path d="M97.8633 116.554L99.5632 115.384L104.361 116.567L102.264 113.523L103.688 112.543L108.225 119.132L106.802 120.112L104.796 117.2L104.246 121.872L102.506 123.07L103.182 117.845L97.8633 116.554Z" fill="#0D2CB0"/>
<path d="M94.4476 127.051L92.8795 127.777L89.5187 120.517L91.0869 119.791L91.5708 120.836C91.7804 119.74 92.4369 118.937 93.5404 118.426C94.5374 117.964 95.5595 117.938 96.6067 118.346C97.6584 118.765 98.4307 119.506 98.9236 120.571C99.421 121.645 99.4866 122.714 99.1206 123.777C98.7545 124.84 98.073 125.602 97.0759 126.063C95.9724 126.574 94.9373 126.56 93.9704 126.02L94.4476 127.051ZM95.9291 119.93C95.2919 119.696 94.6441 119.731 93.9859 120.036C93.3277 120.34 92.8816 120.811 92.6476 121.449C92.4182 122.095 92.458 122.753 92.7672 123.421C93.0764 124.089 93.5496 124.54 94.1869 124.774C94.8286 125.017 95.4786 124.987 96.1368 124.682C96.795 124.377 97.2389 123.901 97.4683 123.255C97.7023 122.617 97.6646 121.965 97.3555 121.297C97.0463 120.629 96.5708 120.173 95.9291 119.93Z" fill="#0D2CB0"/>
<path d="M83.84 130.475L83.3889 128.873L85.8993 128.166L84.1818 122.068L85.8451 121.599L87.5626 127.698L90.0883 126.987L90.5394 128.588L83.84 130.475Z" fill="#0D2CB0"/>
<path d="M75.1432 131.733L73.4272 131.935L72.489 123.99L74.2051 123.788L74.3402 124.932C74.88 123.955 75.7537 123.395 76.9613 123.253C78.0524 123.124 79.0322 123.416 79.9005 124.13C80.7701 124.855 81.2737 125.799 81.4113 126.965C81.5502 128.14 81.2805 129.177 80.6023 130.073C79.9241 130.969 79.0394 131.482 77.9483 131.611C76.7407 131.753 75.7613 131.418 75.01 130.604L75.1432 131.733ZM78.7645 125.424C78.2315 125.004 77.6048 124.836 76.8845 124.921C76.1642 125.006 75.5938 125.315 75.1734 125.848C74.7543 126.392 74.5878 127.029 74.6741 127.76C74.7605 128.491 75.0701 129.067 75.6031 129.487C76.1373 129.918 76.7646 130.091 77.4849 130.006C78.2053 129.921 78.775 129.607 79.1941 129.063C79.6145 128.53 79.7816 127.898 79.6953 127.167C79.609 126.436 79.2987 125.855 78.7645 125.424Z" fill="#0D2CB0"/>
<path d="M63.6411 131.664L64.0094 123.673L65.7355 123.752L65.4439 130.082L68.1131 130.205L68.2501 127.232C68.3085 125.964 68.627 125.076 69.2056 124.569C69.7843 124.062 70.5828 123.88 71.6013 124.023L71.5269 125.637C71.0407 125.529 70.6684 125.613 70.4101 125.89C70.1518 126.166 70.0059 126.667 69.9725 127.391L69.7626 131.946L63.6411 131.664Z" fill="#0D2CB0"/>
<path d="M58.743 122.51C59.8913 122.751 60.7839 123.353 61.421 124.315C62.0581 125.277 62.2549 126.338 62.0115 127.496C61.768 128.655 61.1611 129.547 60.1906 130.171C59.2201 130.796 58.1607 130.987 57.0125 130.746C55.8538 130.502 54.9611 129.901 54.3344 128.941C53.6974 127.978 53.5005 126.918 53.744 125.759C53.9875 124.601 54.5944 123.709 55.5649 123.085C56.5249 122.458 57.5843 122.266 58.743 122.51ZM59.9875 125.224C59.6165 124.655 59.0865 124.299 58.3975 124.154C57.7086 124.009 57.0799 124.122 56.5114 124.493C55.943 124.864 55.5842 125.405 55.4351 126.115C55.2859 126.824 55.3969 127.464 55.7679 128.032C56.139 128.6 56.669 128.957 57.3579 129.102C58.0469 129.247 58.6756 129.133 59.244 128.762C59.8125 128.391 60.1713 127.851 60.3204 127.141C60.4695 126.431 60.3586 125.792 59.9875 125.224Z" fill="#0D2CB0"/>
<path d="M45.6123 127.051L46.18 125.487L49.5941 126.726L51.7559 120.77L53.3802 121.36L50.6507 128.88L45.6123 127.051Z" fill="#0D2CB0"/>
<path d="M11.8544 93.9279L19.0239 90.3784L19.7906 91.927L14.0837 94.7524L15.7094 98.0361L21.4163 95.2107L22.1829 96.7593L15.0135 100.309L11.8544 93.9279Z" fill="#0D2CB0"/>
<path d="M14.7855 88.1815C15.3307 87.8834 15.6953 87.4671 15.8795 86.9325C16.0535 86.401 16.045 85.8186 15.8541 85.1854C15.5892 84.3072 15.074 83.7439 14.3084 83.4957L14.6939 81.8922C16.0349 82.3122 16.9287 83.2627 17.3752 84.7435C17.7509 85.9894 17.6764 87.1093 17.1516 88.1031C16.6166 89.1 15.767 89.7739 14.6028 90.125C13.459 90.4699 12.3902 90.38 11.3964 89.8552C10.3924 89.3335 9.71173 88.4803 9.35452 87.2957C9.01579 86.1723 9.13182 85.1346 9.70262 84.1826C10.2703 83.2204 11.1159 82.57 12.2393 82.2312C12.4129 82.1789 12.6488 82.13 12.9471 82.0846L14.7855 88.1815ZM13.4421 88.6033L12.084 84.0996C11.495 84.3998 11.1037 84.8018 10.9103 85.3058C10.7138 85.7996 10.6972 86.3171 10.8604 86.8583C11.0451 87.4711 11.3676 87.9309 11.8278 88.2378C12.288 88.5446 12.8261 88.6665 13.4421 88.6033Z" fill="#0D2CB0"/>
<path d="M7.08704 76.0662C6.9582 74.9751 7.25595 73.9947 7.9803 73.1251C8.69405 72.2568 9.63355 71.7538 10.7988 71.6162C11.9746 71.4773 13.0107 71.747 13.9071 72.4252C14.8035 73.1035 15.3161 73.9881 15.445 75.0792C15.5876 76.2868 15.2521 77.2662 14.4386 78.0175L18.7447 77.509L18.9473 79.2251L7.82463 80.5385L7.62198 78.8225L8.76603 78.6874C7.78931 78.1475 7.22965 77.2738 7.08704 76.0662ZM13.3372 77.4226C13.7576 76.8896 13.9253 76.2629 13.8402 75.5426C13.7552 74.8223 13.4462 74.2519 12.9132 73.8315C12.3696 73.4124 11.7324 73.2459 11.0014 73.3323C10.2705 73.4186 9.69485 73.7282 9.27446 74.2612C8.84347 74.7954 8.67051 75.4227 8.75557 76.143C8.84063 76.8634 9.15495 77.4331 9.69852 77.8522C10.2315 78.2726 10.8635 78.4397 11.5944 78.3534C12.3253 78.2671 12.9062 77.9568 13.3372 77.4226Z" fill="#0D2CB0"/>
<path d="M11.6261 68.0658C12.2404 67.9726 12.7257 67.7065 13.0819 67.2674C13.4275 66.8277 13.6192 66.2777 13.6568 65.6174C13.7091 64.7016 13.4181 63.9959 12.784 63.5003L13.6957 62.126C14.8115 62.9802 15.3254 64.1795 15.2373 65.7236C15.1633 67.0228 14.7094 68.0493 13.8758 68.8031C13.0315 69.5562 12.0024 69.8982 10.7884 69.8289C9.59564 69.7609 8.6224 69.3101 7.86864 68.4765C7.10424 67.6423 6.75726 66.6075 6.82772 65.3722C6.89453 64.2008 7.35919 63.2657 8.22171 62.567C9.08483 61.8577 10.1021 61.5364 11.2735 61.6032C11.4546 61.6136 11.693 61.6485 11.9887 61.7081L11.6261 68.0658ZM10.2195 68.0016L10.4873 63.3052C9.83106 63.3853 9.3257 63.6289 8.97127 64.0361C8.61745 64.4326 8.42445 64.913 8.39226 65.4774C8.35582 66.1164 8.50116 66.6589 8.8283 67.1049C9.15543 67.5509 9.61917 67.8498 10.2195 68.0016Z" fill="#0D2CB0"/>
<path d="M6.9127 57.0791L5.44556 56.7482L6.43131 52.378L7.89845 52.7089L6.9127 57.0791ZM8.991 52.9553L9.28321 51.6599L17.0871 53.4202L16.714 55.0746L11.7507 53.9551L15.8127 59.0702L15.5205 60.3657L7.71656 58.6054L8.08974 56.951L13.0374 58.067L8.991 52.9553Z" fill="#0D2CB0"/>
<path d="M12.564 42.8555L14.1127 43.4641L13.1589 45.8914L19.0559 48.2087L18.424 49.817L12.5269 47.4997L11.5672 49.9419L10.0185 49.3333L12.564 42.8555Z" fill="#0D2CB0"/>
<path d="M16.5305 35.6545L17.1971 34.506L24.1162 38.5218L23.2648 39.9886L18.8643 37.4346L21.2087 43.5312L20.5421 44.6797L13.623 40.6639L14.4744 39.1971L18.8611 41.7431L16.5305 35.6545Z" fill="#0D2CB0"/>
<path d="M28.5393 26.9021C29.3437 26.574 30.0611 26.7053 30.6916 27.296C31.182 27.7555 31.4261 28.2984 31.4239 28.9248C31.4212 29.5362 31.1318 30.1493 30.5557 30.7643L27.7553 33.7535L21.9171 28.284L24.4987 25.5284C25.0602 24.929 25.6459 24.608 26.2558 24.5655C26.8652 24.5079 27.4073 24.7015 27.8821 25.1464C28.4348 25.6641 28.6539 26.2494 28.5393 26.9021ZM25.4854 26.6282L24.118 28.0877L25.4141 29.302L26.7815 27.8424C27.2628 27.3286 27.2855 26.8676 26.8496 26.4592C26.4214 26.0581 25.9667 26.1144 25.4854 26.6282ZM29.3487 29.8528C29.8446 29.3235 29.8629 28.8437 29.4036 28.4134C29.2013 28.2238 28.9799 28.148 28.7397 28.186C28.4917 28.2168 28.251 28.3567 28.0176 28.6058L26.4533 30.2755L27.7845 31.5226L29.3487 29.8528Z" fill="#0D2CB0"/>
<path d="M42.1366 21.5279L40.4368 22.6986L35.639 21.5152L37.7354 24.5591L36.3123 25.5392L31.7746 18.9506L33.1978 17.9705L35.2034 20.8827L35.7541 16.2099L37.4935 15.0119L36.818 20.2369L42.1366 21.5279Z" fill="#0D2CB0"/>
<path d="M45.5523 11.0315L47.1204 10.3056L50.4812 17.5654L48.9131 18.2913L48.4291 17.2459C48.2195 18.342 47.563 19.1455 46.4595 19.6563C45.4625 20.1179 44.4404 20.1444 43.3932 19.7358C42.3415 19.3176 41.5692 18.5761 41.0763 17.5113C40.5789 16.4369 40.5133 15.3683 40.8793 14.3055C41.2454 13.2427 41.927 12.4805 42.924 12.019C44.0275 11.5082 45.0626 11.5226 46.0295 12.0624L45.5523 11.0315ZM44.0708 18.1527C44.7081 18.3866 45.3558 18.3513 46.014 18.0465C46.6722 17.7418 47.1183 17.2709 47.3523 16.6336C47.5817 15.9867 47.5419 15.3293 47.2327 14.6614C46.9235 13.9935 46.4503 13.5426 45.813 13.3086C45.1713 13.065 44.5213 13.0955 43.8631 13.4003C43.2049 13.705 42.7611 14.1808 42.5316 14.8277C42.2976 15.4649 42.3353 16.1175 42.6445 16.7854C42.9536 17.4533 43.4291 17.9091 44.0708 18.1527Z" fill="#0D2CB0"/>
<path d="M56.1599 7.60719L56.611 9.2089L54.1006 9.91583L55.8181 16.0146L54.1548 16.483L52.4373 10.3842L49.9116 11.0955L49.4605 9.49381L56.1599 7.60719Z" fill="#0D2CB0"/>
<path d="M64.8567 6.3496L66.5727 6.14695L67.5109 14.0917L65.7948 14.2944L65.6598 13.1503C65.1199 14.1271 64.2462 14.6867 63.0386 14.8293C61.9475 14.9582 60.9678 14.6657 60.0994 13.952C59.2298 13.2276 58.7262 12.2828 58.5886 11.1176C58.4497 9.94176 58.7194 8.90565 59.3976 8.00926C60.0758 7.11286 60.9605 6.60025 62.0516 6.4714C63.2592 6.3288 64.2386 6.66425 64.9899 7.47776L64.8567 6.3496ZM61.2355 12.6578C61.7684 13.0782 62.3951 13.2459 63.1154 13.1608C63.8358 13.0757 64.4061 12.7667 64.8265 12.2337C65.2457 11.6902 65.4121 11.0529 65.3258 10.322C65.2394 9.59108 64.9298 9.01542 64.3968 8.59502C63.8626 8.16403 63.2353 7.99107 62.515 8.07613C61.7946 8.16119 61.2249 8.47551 60.8058 9.01908C60.3854 9.55206 60.2183 10.184 60.3046 10.9149C60.391 11.6459 60.7012 12.2268 61.2355 12.6578Z" fill="#0D2CB0"/>
<path d="M76.3588 6.4178L75.9905 14.4093L74.2644 14.3298L74.556 8.0005L71.8868 7.87751L71.7499 10.8504C71.6914 12.1183 71.3729 13.006 70.7943 13.5132C70.2156 14.0204 69.4171 14.2025 68.3986 14.0595L68.473 12.4452C68.9592 12.5531 69.3315 12.4688 69.5898 12.1924C69.8481 11.916 69.994 11.4155 70.0274 10.6909L70.2373 6.13574L76.3588 6.4178Z" fill="#0D2CB0"/>
<path d="M81.2569 15.5725C80.1087 15.3312 79.216 14.7295 78.5789 13.7672C77.9418 12.805 77.745 11.7445 77.9884 10.5858C78.2319 9.42715 78.8389 8.53557 79.8093 7.91111C80.7798 7.28665 81.8392 7.09505 82.9874 7.33631C84.1461 7.57977 85.0388 8.18152 85.6655 9.14155C86.3026 10.1038 86.4994 11.1642 86.2559 12.3229C86.0125 13.4816 85.4055 14.3732 84.435 14.9977C83.475 15.6243 82.4156 15.8159 81.2569 15.5725ZM80.0124 12.8586C80.3834 13.427 80.9134 13.7836 81.6024 13.9284C82.2913 14.0731 82.92 13.96 83.4885 13.5889C84.0569 13.2179 84.4157 12.6775 84.5648 11.9676C84.714 11.2578 84.603 10.6187 84.232 10.0502C83.8609 9.48177 83.3309 9.12517 82.642 8.98041C81.953 8.83566 81.3243 8.9488 80.7559 9.31984C80.1874 9.69089 79.8287 10.2313 79.6795 10.9412C79.5304 11.651 79.6413 12.2901 80.0124 12.8586Z" fill="#0D2CB0"/>
<path d="M94.3876 11.031L93.8199 12.5951L90.4058 11.3559L88.244 17.3117L86.6197 16.7222L89.3492 9.2022L94.3876 11.031Z" fill="#0D2CB0"/>
<path d="M30.6398 112.993C29.8164 112.257 29.7458 110.993 30.4821 110.169C31.2184 109.346 32.4828 109.275 33.3062 110.012C34.1295 110.748 34.2001 112.012 33.4638 112.836C32.7275 113.659 31.4631 113.73 30.6398 112.993Z" fill="#0D2CB0"/>
<path d="M106.632 28.0158C105.808 27.2795 105.738 26.0151 106.474 25.1918C107.21 24.3684 108.475 24.2978 109.298 25.0341C110.121 25.7704 110.192 27.0348 109.456 27.8582C108.719 28.6815 107.455 28.7521 106.632 28.0158Z" fill="#0D2CB0"/>
</svg>
